<svg width="27" height="24" viewBox="0 0 27 24" fill="none" xmlns="http://www.w3.org/2000/svg">
<g clip-path="url(#clip0_1_2)">
<path d="M19 8.37745e-07C17.8637 -0.00055109 16.7439 0.271623 15.7346 0.793655C14.7254 1.31569 13.8562 2.07233 13.2 3C12.5438 2.07233 11.6746 1.31569 10.6654 0.793655C9.65609 0.271623 8.53628 -0.00055109 7.4 8.37745e-07C5.4374 8.37745e-07 3.55518 0.779641 2.16741 2.16741C0.779641 3.55518 0 5.4374 0 7.4C0 13.2 13.2 23.8 13.2 23.8C13.2 23.8 26.4 13.2 26.4 7.4C26.4 5.4374 25.6204 3.55518 24.2326 2.16741C22.8448 0.779641 20.9626 8.37745e-07 19 8.37745e-07ZM19 2.6C19.6257 2.59986 20.2452 2.72466 20.822 2.96709C21.3989 3.20951 21.9215 3.56468 22.3593 4.01176C22.797 4.45885 23.1411 4.98884 23.3713 5.57066C23.6016 6.15249 23.7133 6.77442 23.7 7.4C23.7 10 18.5 15.9 13.1 20.3C7.8 15.7 2.6 9.9 2.6 7.4C2.58636 6.76592 2.70119 6.13563 2.93759 5.5471C3.17398 4.95858 3.52704 4.42398 3.97551 3.97551C4.42398 3.52704 4.95858 3.17398 5.5471 2.93759C6.13563 2.70119 6.76592 2.58636 7.4 2.6C10.6 2.6 13.2 6.6 13.2 6.6C13.2 6.6 15.7 2.6 19 2.6Z" fill="#9B9B9B"/>
<path d="M16.593 12.8985C15.6022 13.8893 15.1308 15.2671 14.2491 16.3446C13.934 16.7298 13.6048 17.1008 13.3369 17.5229C13.1941 17.7479 13.1926 18.0618 13.0075 18.2577C12.7424 18.5384 12.567 19.0752 13.0582 18.4858" stroke="#9B9B9B" stroke-width="3" stroke-linecap="round"/>
<path d="M13.0582 19.9681C13.0582 20.1547 13.0891 20.1935 13.1975 19.9808C13.5975 19.1956 13.9279 18.373 14.3124 17.5799C14.8749 16.4199 15.4668 15.1803 16.2572 14.1528C16.8057 13.4398 17.4367 12.8407 18.0753 12.2144C18.6991 11.6025 19.4658 11.0474 20.0137 10.39" stroke="#9B9B9B" stroke-width="3" stroke-linecap="round"/>
<path d="M11.2338 19.1699C10.4826 19.0197 9.91008 17.2589 9.63108 16.7184C9.2864 16.0506 9.01453 15.3651 8.61118 14.7483C8.2742 14.2329 7.73259 13.7176 7.30623 13.2913C6.90325 12.8883 6.6135 11.947 6.47005 11.4162C6.17664 10.3306 5.48507 9.59084 4.79134 8.74295C4.76342 8.70881 4.35824 8.31012 4.34791 8.31219C4.25243 8.33128 5.05901 10.3889 5.16509 10.618C5.30604 10.9225 5.24884 11.2416 5.39314 11.5302C5.42163 11.5872 5.72697 12.1406 5.75422 12.018C5.89334 11.392 5.16538 10.4622 4.98772 9.8832C4.73715 9.06652 4.61662 8.19874 4.44927 7.36198C4.32005 6.71588 4.16421 6.16677 4.16421 5.51224C4.16421 5.17619 4.02196 4.43995 4.22755 4.17561C5.21274 2.90894 7.46637 3.57457 8.32612 4.62538C8.63636 5.00455 8.71804 5.49502 9.18131 5.74029C9.78889 6.06194 9.75144 5.52585 9.75144 4.98012C9.75144 4.75288 9.18283 4.29308 9.37769 4.40999C9.78394 4.65375 10.2405 4.81352 10.6636 5.0308C11.1396 5.27523 11.3933 5.7991 11.8546 6.05069C11.924 6.08854 12.4751 6.56187 12.3233 6.60181C11.8372 6.72974 10.5761 5.04449 10.2329 4.7394C9.86358 4.41114 9.6865 4.12448 9.24466 3.99824C9.05822 3.94497 8.80809 3.53 8.6682 3.3901C8.43557 3.15748 7.88013 4.90805 7.81301 5.11948C7.67285 5.56098 7.44126 6.09223 7.19221 6.48778C6.90219 6.9484 6.99776 7.58376 7.02117 8.12214C7.05047 8.79602 7.13422 9.82521 7.64197 10.333C7.75529 10.4463 8.1819 11.1553 7.96504 10.466C7.70594 9.64242 7.27417 8.88147 6.97682 8.07147C6.76458 7.49328 6.61604 6.89579 6.35602 6.33575C6.31349 6.24415 6.1739 5.84246 6.22933 6.20272C6.31851 6.78241 6.54499 7.37777 6.72977 7.9321C7.37248 9.86023 8.17358 11.7289 9.29533 13.4433C9.34564 13.5202 10.1218 14.7906 10.1822 14.2035C10.4301 11.7956 8.85145 9.34384 7.83835 7.29229C7.66388 6.939 7.20206 5.54571 6.67276 5.4869C6.45462 5.46266 6.21378 5.33896 6.04562 5.20817C5.6803 4.92403 6.39043 7.11818 6.41303 7.17827C6.85306 8.34809 7.33014 9.5308 7.92703 10.6307C8.31098 11.3382 8.78358 11.9874 9.06729 12.7465C9.48704 13.8696 9.84893 15.0616 9.86546 16.2686C9.86878 16.5113 9.76088 17.3455 10.1505 17.3455C10.5574 17.3455 10.5538 15.5763 10.6066 15.2487C10.6278 15.1173 10.6026 14.7399 10.689 14.6342C10.7966 14.5027 10.8862 14.6853 10.8917 14.4189C10.9255 12.7626 10.537 11.2296 10.2075 9.61714C10.0582 8.88611 9.88594 8.18598 9.54239 7.52035C9.44149 7.32486 9.3636 6.96195 9.48538 7.43799C10.3076 10.6523 11.266 13.8462 12.3487 16.9781C12.5269 17.4937 12.8301 17.9073 12.8301 18.4604C12.8301 18.5491 12.8301 18.8152 12.8301 18.7265C12.8301 17.9922 12.6374 17.2611 12.488 16.5473C12.1285 14.8295 11.8205 13.101 11.4618 11.3845C11.3716 10.9526 11.2206 10.4952 11.2338 10.0479C11.2396 9.84961 11.6756 10.9816 11.7152 11.0995C11.94 11.7688 12.167 12.4367 12.3677 13.1139C12.4396 13.3568 12.4723 14.1963 12.6654 14.3618C12.8307 14.5035 12.8502 14.1321 12.8555 14.0895C12.9678 13.1798 13.0823 12.278 13.2609 11.3782C13.2639 11.3631 13.489 10.3678 13.5079 10.3773C13.568 10.4073 13.7038 11.4758 13.7423 11.5936C13.7918 11.7449 14.0167 12.5377 14.2428 12.5628C14.4159 12.582 14.1069 10.6699 14.0717 10.5293C13.9516 10.0489 13.6692 8.90765 13.0012 8.90765C12.8683 8.90765 12.4615 8.83993 12.374 8.95833C12.1259 9.294 12.256 10.0717 12.2663 10.447C12.2788 10.9022 12.4065 12.2632 12.374 11.809C12.2471 10.0315 11.3652 8.47656 10.5243 6.96289C9.72386 5.52214 11.4226 10.1396 12.0193 11.6759C12.3632 12.5615 12.6898 13.4544 13.0582 14.3302C13.2171 14.708 13.3484 15.3875 13.6283 15.6985C13.9585 16.0654 14.6193 15.354 14.9459 15.4134C15.6236 15.5366 15.5659 16.5747 15.364 17.0541C15.3145 17.1717 15.2718 17.5629 15.4527 17.5736C15.8071 17.5944 16.0237 17.1575 16.1875 16.8894C16.5567 16.2853 16.585 15.4877 17.049 14.9573C17.335 14.6305 17.6433 14.3803 18.0119 14.1275C18.372 13.8806 18.8271 13.8381 19.1902 13.5827C19.4957 13.3677 19.6711 12.9572 19.906 12.6831C20.2568 12.2739 20.7237 11.8816 21.0146 11.4162C21.2992 10.9608 21.438 10.3911 21.6227 9.8832C21.7005 9.66933 21.9697 9.25997 22.1232 9.07235C22.3318 8.81733 22.4057 8.44274 22.4969 8.13481C22.636 7.66536 22.7318 7.10888 22.5793 6.62081C22.2877 5.68777 21.8032 3.95646 20.5838 3.89055C19.7184 3.84377 18.9795 3.43445 18.1259 3.43445C17.2814 3.43445 16.742 3.73366 16.0228 4.09326C15.3316 4.43889 14.7806 4.59633 14.3124 5.26518C13.7629 6.05024 13.615 6.99804 13.945 7.85609C14.1149 8.29787 14.4746 8.94077 14.9966 9.01534C15.4364 9.07818 15.4128 8.96129 15.4464 8.45788C15.467 8.14802 15.4811 7.86673 15.5667 7.56469C15.6301 7.3411 15.7213 6.68541 15.7948 6.90588C15.972 7.43769 15.9018 8.43118 15.9088 8.99634C15.9113 9.2026 15.8015 10.5363 15.9785 10.1429C16.4415 9.11399 17.3416 8.19409 18.1133 7.38732C18.622 6.85548 17.8343 7.59054 17.6762 7.90676C17.3538 8.55143 17.0771 9.49966 17.3911 10.2063C17.5782 10.6272 18.1808 9.61044 18.2146 9.56646C18.7814 8.82965 19.344 8.00251 20.2417 7.65337C20.5646 7.52782 21.0665 7.27203 21.3186 7.0199C21.5294 6.80914 21.0609 6.86282 20.9702 6.84886C20.0079 6.70081 18.9476 6.16838 18.1006 5.71495C17.3808 5.32961 16.2387 4.38672 15.516 5.31586C15.074 5.88421 15.096 7.65337 16.0228 7.65337C16.5607 7.65337 16.9907 7.07206 17.2518 6.65249C17.4001 6.414 17.7386 5.6503 17.3088 6.32308C16.3891 7.76256 15.7951 9.15923 15.459 10.8397C15.2021 12.1245 15.1709 13.4408 14.7939 14.6976C14.5475 15.5187 13.8102 16.2079 13.6283 17.1175" stroke="#9B9B9B" stroke-width="3" stroke-linecap="round"/>
<path d="M3.25203 8.6796C2.51145 8.59732 1.92678 7.37582 1.7697 6.74751C1.65567 6.29141 1.98366 6.17105 2.45385 6.17105" stroke="#9B9B9B" stroke-width="3" stroke-linecap="round"/>
</g>
<defs>
<clipPath id="clip0_1_2">
<rect width="26.4" height="23.8" fill="white"/>
</clipPath>
</defs>
</svg>
