<svg xmlns="http://www.w3.org/2000/svg" viewBox="0 0 24 24"><title>20170602_icon_decompose</title><g id="Calque_29" data-name="Calque 29"><path d="M19.29,3.82V0H5.87V3.84A4.55,4.55,0,0,0,6,12.75a4.44,4.44,0,0,0,.48,1.17,7.14,7.14,0,0,0,5.21,3.4V21H7.21v2h11V21h-4.5V17.29a7.18,7.18,0,0,0,4.95-3.37,4.82,4.82,0,0,0,.48-1.15,4.55,4.55,0,0,0,.15-8.95ZM5.87,10.63a2.55,2.55,0,0,1,0-4.69Zm11.42.95a2.61,2.61,0,0,1-.36,1.32,5.06,5.06,0,0,1-8.71,0,2.61,2.61,0,0,1-.35-1.32V2h9.42Zm2-.92V5.9a2.54,2.54,0,0,1,0,4.76Z"/></g></svg>