<svg version="1.1" xmlns="http://www.w3.org/2000/svg" xmlns:xlink="http://www.w3.org/1999/xlink" x="0px" y="0px"
	 viewBox="0 0 29.95 26.955" enable-background="new 0 0 29.95 26.955" xml:space="preserve">
<path d="M20.788,1.587c-2.378,0-4.492,1.189-5.813,3.039c-1.321-1.85-3.435-3.039-5.813-3.039
	c-4.096,0-7.398,3.303-7.398,7.398c0,5.813,13.211,16.382,13.211,16.382S28.187,14.799,28.187,8.986
	C28.187,4.89,24.884,1.587,20.788,1.587z M20.788,4.23c2.642,0,4.756,2.114,4.756,4.756s-5.153,8.455-10.569,12.947
	C9.559,17.309,4.406,11.496,4.406,8.986c0-2.642,2.114-4.756,4.756-4.756c3.171,0,5.813,3.963,5.813,3.963S17.485,4.23,20.788,4.23"
	/>
</svg>
