<svg width="148" height="148" viewBox="0 0 148 148" fill="none" xmlns="http://www.w3.org/2000/svg">
<path d="M73.6 0C59.0433 0 44.8135 4.31656 32.7101 12.4038C20.6066 20.4911 11.1731 31.9859 5.6025 45.4345C0.0318899 58.8831 -1.42564 73.6816 1.41424 87.9586C4.25411 102.236 11.2638 115.35 21.557 125.643C31.8501 135.936 44.9644 142.946 59.2414 145.786C73.5184 148.626 88.3169 147.168 101.766 141.598C115.214 136.027 126.709 126.593 134.796 114.49C142.883 102.387 147.2 88.1567 147.2 73.6C147.2 54.0801 139.446 35.3596 125.643 21.5569C111.84 7.75426 93.12 0 73.6 0ZM98 116.8C78.6 131.6 51.3 126.9 36.1 106.3C24.1 90.1 23.1 69.3 33.5 51.7C48.8 25.7 82.6 14.8 110.3 26.8L112.8 28.1L89.8 27.3V28L95.9 29V30.1C93.7 30.4 91.4 31.1 89.2 30.9C69.6 29.2 44.4 44.6 38 65.1C31 87.5 45.5 111.9 68.3 115.4C84.3 117.8 100.5 106.2 102.3 90.3C103.3 81.3 99.1 74.3 91.8 69.3C84.5 64.3 78.9 65.1 72.4 68.8C65.9 72.5 63.9 77.3 65 84C65.3266 83.3589 65.5944 82.6895 65.8 82C67.1 75.2 70.8 71.1 76.7 70.1C79.7959 69.4778 83.0092 69.8484 85.8821 71.1592C88.755 72.4699 91.1409 74.6539 92.7 77.4C98.7 87.5 92.3 100.7 80 103.1C70.8 104.9 63.6 101.3 58.2 94C52.8 86.7 52.9 76.6 57.4 69.4C69.1 50.6 95.4 51.2 107.8 70.6C117.4 85.6 113.2 105.2 98 116.8Z" fill="#FF0000"/>
<path d="M78.8 96.1C81.9335 95.7848 84.8354 94.3075 86.9339 91.9592C89.0325 89.6109 90.1755 86.5618 90.1379 83.4127C90.1002 80.2636 88.8846 77.2427 86.7306 74.9452C84.5765 72.6478 81.6402 71.2403 78.5 71C70.6 71.3 66.3 77.1 65.9 83.6C65.5 90.1 72 96.2 78.8 96.1ZM79.2 78.5C79.8788 78.5254 80.5456 78.6862 81.1614 78.9728C81.7771 79.2595 82.3295 79.6663 82.7859 80.1693C83.2423 80.6723 83.5937 81.2614 83.8194 81.9021C84.045 82.5427 84.1404 83.222 84.1 83.9C84.0218 84.8723 83.661 85.8004 83.0619 86.5702C82.4628 87.3399 81.6517 87.9177 80.7284 88.2322C79.8051 88.5467 78.81 88.5843 77.8656 88.3404C76.9212 88.0964 76.0687 87.5816 75.4133 86.8592C74.7578 86.1369 74.3279 85.2386 74.1766 84.275C74.0253 83.3114 74.1591 82.3246 74.5616 81.4361C74.9641 80.5476 75.6177 79.7963 76.4418 79.2746C77.266 78.7529 78.2247 78.4836 79.2 78.5Z" fill="#FF0000"/>
</svg>
